<mxfile host="app.diagrams.net" modified="2021-06-17T23:34:38.709Z" agent="5.0 (Windows NT 10.0; Win64; x64) AppleWebKit/537.36 (KHTML, like Gecko) Chrome/91.0.4472.101 Safari/537.36" etag="yiH91t0FdNTuKaOm1OdB" version="14.7.7" type="github">
  <diagram id="UxyuCJojJ0uWYw0A2UTh" name="Page-1">
    <mxGraphModel dx="3182" dy="1164" grid="0" gridSize="10" guides="1" tooltips="1" connect="1" arrows="1" fold="1" page="1" pageScale="1" pageWidth="850" pageHeight="1100" math="0" shadow="0">
      <root>
        <mxCell id="0" />
        <mxCell id="1" parent="0" />
        <mxCell id="IjMVUqnFBVOiyXnd5Re5-92" value="" style="whiteSpace=wrap;html=1;aspect=fixed;rounded=0;sketch=0;strokeWidth=2;" vertex="1" parent="1">
          <mxGeometry x="100" y="130" width="656" height="656" as="geometry" />
        </mxCell>
        <mxCell id="IjMVUqnFBVOiyXnd5Re5-6" value="Resource Group" style="fontStyle=0;verticalAlign=top;align=center;spacingTop=-2;fillColor=none;rounded=0;whiteSpace=wrap;html=1;strokeColor=#919191;strokeWidth=2;dashed=1;container=1;collapsible=0;expand=0;recursiveResize=0;" vertex="1" parent="1">
          <mxGeometry x="183.74" y="212" width="558.26" height="488" as="geometry" />
        </mxCell>
        <mxCell id="IjMVUqnFBVOiyXnd5Re5-69" value="&lt;h1 style=&quot;text-align: justify&quot;&gt;&lt;font style=&quot;font-size: 20px&quot;&gt;Log e code&lt;/font&gt;&lt;/h1&gt;&lt;p style=&quot;text-align: justify&quot;&gt;&lt;/p&gt;&lt;ul&gt;&lt;li&gt;Consigliato: Azure General Purpose v2 storage account&amp;nbsp;&lt;/li&gt;&lt;li&gt;Alternativa: Rabbit MQ in container&lt;/li&gt;&lt;/ul&gt;&lt;p&gt;&lt;/p&gt;" style="text;html=1;strokeColor=#82b366;fillColor=#d5e8d4;spacing=5;spacingTop=-20;whiteSpace=wrap;overflow=hidden;rounded=1;glass=1;shadow=0;" vertex="1" parent="IjMVUqnFBVOiyXnd5Re5-6">
          <mxGeometry x="172.26" y="104" width="190" height="131" as="geometry" />
        </mxCell>
        <mxCell id="IjMVUqnFBVOiyXnd5Re5-64" style="edgeStyle=orthogonalEdgeStyle;curved=1;rounded=0;orthogonalLoop=1;jettySize=auto;html=1;" edge="1" parent="1" source="IjMVUqnFBVOiyXnd5Re5-1" target="IjMVUqnFBVOiyXnd5Re5-3">
          <mxGeometry relative="1" as="geometry" />
        </mxCell>
        <mxCell id="IjMVUqnFBVOiyXnd5Re5-82" value="Htps via internet o&amp;nbsp;&lt;br&gt;service enpoints" style="edgeLabel;html=1;align=center;verticalAlign=middle;resizable=0;points=[];" vertex="1" connectable="0" parent="IjMVUqnFBVOiyXnd5Re5-64">
          <mxGeometry x="-0.0498" y="-14" relative="1" as="geometry">
            <mxPoint as="offset" />
          </mxGeometry>
        </mxCell>
        <mxCell id="IjMVUqnFBVOiyXnd5Re5-65" style="edgeStyle=orthogonalEdgeStyle;curved=1;rounded=0;orthogonalLoop=1;jettySize=auto;html=1;startArrow=classic;startFill=1;" edge="1" parent="1" source="IjMVUqnFBVOiyXnd5Re5-1" target="IjMVUqnFBVOiyXnd5Re5-2">
          <mxGeometry relative="1" as="geometry" />
        </mxCell>
        <mxCell id="IjMVUqnFBVOiyXnd5Re5-66" style="edgeStyle=orthogonalEdgeStyle;curved=1;rounded=0;orthogonalLoop=1;jettySize=auto;html=1;startArrow=none;startFill=0;" edge="1" parent="1" source="IjMVUqnFBVOiyXnd5Re5-1" target="IjMVUqnFBVOiyXnd5Re5-63">
          <mxGeometry relative="1" as="geometry" />
        </mxCell>
        <mxCell id="IjMVUqnFBVOiyXnd5Re5-84" value="tcp" style="edgeLabel;html=1;align=center;verticalAlign=middle;resizable=0;points=[];" vertex="1" connectable="0" parent="IjMVUqnFBVOiyXnd5Re5-66">
          <mxGeometry x="0.5689" y="-13" relative="1" as="geometry">
            <mxPoint as="offset" />
          </mxGeometry>
        </mxCell>
        <mxCell id="IjMVUqnFBVOiyXnd5Re5-67" style="edgeStyle=orthogonalEdgeStyle;curved=1;rounded=0;orthogonalLoop=1;jettySize=auto;html=1;startArrow=none;startFill=0;" edge="1" parent="1" source="IjMVUqnFBVOiyXnd5Re5-1" target="IjMVUqnFBVOiyXnd5Re5-4">
          <mxGeometry relative="1" as="geometry" />
        </mxCell>
        <mxCell id="IjMVUqnFBVOiyXnd5Re5-81" value="SMPT" style="edgeLabel;html=1;align=center;verticalAlign=middle;resizable=0;points=[];" vertex="1" connectable="0" parent="IjMVUqnFBVOiyXnd5Re5-67">
          <mxGeometry x="0.0938" y="21" relative="1" as="geometry">
            <mxPoint as="offset" />
          </mxGeometry>
        </mxCell>
        <mxCell id="IjMVUqnFBVOiyXnd5Re5-79" style="edgeStyle=orthogonalEdgeStyle;curved=1;rounded=0;orthogonalLoop=1;jettySize=auto;html=1;startArrow=classic;startFill=1;strokeColor=#B3FF66;" edge="1" parent="1" source="IjMVUqnFBVOiyXnd5Re5-1" target="IjMVUqnFBVOiyXnd5Re5-78">
          <mxGeometry relative="1" as="geometry">
            <mxPoint x="797" y="192" as="targetPoint" />
          </mxGeometry>
        </mxCell>
        <mxCell id="IjMVUqnFBVOiyXnd5Re5-80" value="https" style="edgeLabel;html=1;align=center;verticalAlign=middle;resizable=0;points=[];" vertex="1" connectable="0" parent="IjMVUqnFBVOiyXnd5Re5-79">
          <mxGeometry x="0.2828" y="52" relative="1" as="geometry">
            <mxPoint as="offset" />
          </mxGeometry>
        </mxCell>
        <mxCell id="IjMVUqnFBVOiyXnd5Re5-83" value="Htps via internet o&amp;nbsp;&lt;br&gt;service enpoints" style="edgeLabel;html=1;align=center;verticalAlign=middle;resizable=0;points=[];" vertex="1" connectable="0" parent="IjMVUqnFBVOiyXnd5Re5-79">
          <mxGeometry x="-0.7265" y="8" relative="1" as="geometry">
            <mxPoint as="offset" />
          </mxGeometry>
        </mxCell>
        <mxCell id="IjMVUqnFBVOiyXnd5Re5-98" style="edgeStyle=orthogonalEdgeStyle;curved=0;rounded=1;sketch=0;orthogonalLoop=1;jettySize=auto;html=1;" edge="1" parent="1" source="IjMVUqnFBVOiyXnd5Re5-1" target="IjMVUqnFBVOiyXnd5Re5-94">
          <mxGeometry relative="1" as="geometry" />
        </mxCell>
        <mxCell id="IjMVUqnFBVOiyXnd5Re5-101" value="https" style="edgeLabel;html=1;align=center;verticalAlign=middle;resizable=0;points=[];" vertex="1" connectable="0" parent="IjMVUqnFBVOiyXnd5Re5-98">
          <mxGeometry x="0.6676" y="2" relative="1" as="geometry">
            <mxPoint as="offset" />
          </mxGeometry>
        </mxCell>
        <mxCell id="IjMVUqnFBVOiyXnd5Re5-1" value="Solution login (containers)&lt;br&gt;" style="aspect=fixed;html=1;points=[];align=center;image;fontSize=12;image=img/lib/mscae/OpenShift.svg;" vertex="1" parent="1">
          <mxGeometry x="405.91" y="470" width="97.83" height="90" as="geometry" />
        </mxCell>
        <mxCell id="IjMVUqnFBVOiyXnd5Re5-2" value="Message queue" style="verticalLabelPosition=bottom;html=1;verticalAlign=top;align=center;strokeColor=none;fillColor=#00BEF2;shape=mxgraph.azure.storage_queue;" vertex="1" parent="1">
          <mxGeometry x="593" y="360" width="100" height="90" as="geometry" />
        </mxCell>
        <mxCell id="IjMVUqnFBVOiyXnd5Re5-4" value="Sendgrid" style="aspect=fixed;html=1;points=[];align=center;image;fontSize=12;image=img/lib/mscae/SendGrid_Accounts.svg;" vertex="1" parent="1">
          <mxGeometry x="218" y="590" width="80" height="80" as="geometry" />
        </mxCell>
        <mxCell id="IjMVUqnFBVOiyXnd5Re5-3" value="Logs" style="verticalLabelPosition=bottom;html=1;verticalAlign=top;align=center;strokeColor=none;fillColor=#00BEF2;shape=mxgraph.azure.storage_blob;" vertex="1" parent="1">
          <mxGeometry x="208" y="360" width="100" height="80" as="geometry" />
        </mxCell>
        <mxCell id="IjMVUqnFBVOiyXnd5Re5-63" value="Log applicativi" style="aspect=fixed;html=1;points=[];align=center;image;fontSize=12;image=img/lib/azure2/devops/Application_Insights.svg;" vertex="1" parent="1">
          <mxGeometry x="613" y="590" width="48.89" height="70" as="geometry" />
        </mxCell>
        <mxCell id="IjMVUqnFBVOiyXnd5Re5-71" style="edgeStyle=orthogonalEdgeStyle;curved=1;rounded=0;orthogonalLoop=1;jettySize=auto;html=1;entryX=0.5;entryY=0;entryDx=0;entryDy=0;entryPerimeter=0;startArrow=none;startFill=0;fillColor=#d5e8d4;strokeColor=#82b366;" edge="1" parent="1" source="IjMVUqnFBVOiyXnd5Re5-69" target="IjMVUqnFBVOiyXnd5Re5-3">
          <mxGeometry relative="1" as="geometry" />
        </mxCell>
        <mxCell id="IjMVUqnFBVOiyXnd5Re5-72" style="edgeStyle=orthogonalEdgeStyle;curved=1;rounded=0;orthogonalLoop=1;jettySize=auto;html=1;entryX=0.5;entryY=0;entryDx=0;entryDy=0;entryPerimeter=0;startArrow=none;startFill=0;strokeColor=#82b366;fillColor=#d5e8d4;" edge="1" parent="1" source="IjMVUqnFBVOiyXnd5Re5-69" target="IjMVUqnFBVOiyXnd5Re5-2">
          <mxGeometry relative="1" as="geometry" />
        </mxCell>
        <mxCell id="IjMVUqnFBVOiyXnd5Re5-75" style="edgeStyle=orthogonalEdgeStyle;curved=1;rounded=0;orthogonalLoop=1;jettySize=auto;html=1;startArrow=none;startFill=0;strokeColor=#6c8ebf;fillColor=#dae8fc;" edge="1" parent="1" source="IjMVUqnFBVOiyXnd5Re5-74">
          <mxGeometry relative="1" as="geometry">
            <mxPoint x="217" y="625" as="targetPoint" />
          </mxGeometry>
        </mxCell>
        <mxCell id="IjMVUqnFBVOiyXnd5Re5-74" value="&lt;h1 style=&quot;text-align: justify&quot;&gt;&lt;font style=&quot;font-size: 20px&quot;&gt;Notifiche email&lt;/font&gt;&lt;/h1&gt;&lt;p style=&quot;text-align: justify&quot;&gt;Consigliato: SMTP interno&lt;br&gt;Alternativa: SendGrid&lt;/p&gt;" style="text;html=1;strokeColor=#6c8ebf;fillColor=#dae8fc;spacing=5;spacingTop=-20;whiteSpace=wrap;overflow=hidden;rounded=1;glass=1;shadow=0;" vertex="1" parent="1">
          <mxGeometry x="40" y="461" width="190" height="92" as="geometry" />
        </mxCell>
        <mxCell id="IjMVUqnFBVOiyXnd5Re5-77" value="Azure Redhat Openshift cluster (v4)" style="text;html=1;align=center;verticalAlign=middle;resizable=0;points=[];autosize=1;strokeColor=none;" vertex="1" parent="1">
          <mxGeometry x="359" y="584" width="201" height="18" as="geometry" />
        </mxCell>
        <mxCell id="IjMVUqnFBVOiyXnd5Re5-78" value="Azure AD&lt;br&gt;Tenant" style="aspect=fixed;html=1;points=[];align=center;image;fontSize=12;image=img/lib/azure2/identity/Azure_Active_Directory.svg;rounded=1;shadow=0;glass=1;" vertex="1" parent="1">
          <mxGeometry x="684" y="127" width="70" height="64" as="geometry" />
        </mxCell>
        <mxCell id="IjMVUqnFBVOiyXnd5Re5-93" value="Azure Region" style="text;html=1;align=center;verticalAlign=middle;resizable=0;points=[];autosize=1;strokeColor=none;" vertex="1" parent="1">
          <mxGeometry x="105" y="142" width="83" height="18" as="geometry" />
        </mxCell>
        <mxCell id="IjMVUqnFBVOiyXnd5Re5-94" value="" style="html=1;dashed=0;whitespace=wrap;fillColor=#e3c800;strokeColor=#B09500;points=[[0.005,0.63,0],[0.1,0.2,0],[0.9,0.2,0],[0.5,0,0],[0.995,0.63,0],[0.72,0.99,0],[0.5,1,0],[0.28,0.99,0]];shape=mxgraph.kubernetes.icon;prIcon=api;rounded=0;sketch=0;fontColor=#000000;" vertex="1" parent="1">
          <mxGeometry x="475" y="944" width="82" height="72" as="geometry" />
        </mxCell>
        <mxCell id="IjMVUqnFBVOiyXnd5Re5-96" style="edgeStyle=orthogonalEdgeStyle;curved=0;rounded=1;sketch=0;orthogonalLoop=1;jettySize=auto;html=1;" edge="1" parent="1" source="IjMVUqnFBVOiyXnd5Re5-95" target="IjMVUqnFBVOiyXnd5Re5-1">
          <mxGeometry relative="1" as="geometry">
            <Array as="points">
              <mxPoint x="455" y="846" />
            </Array>
          </mxGeometry>
        </mxCell>
        <mxCell id="IjMVUqnFBVOiyXnd5Re5-102" value="https" style="edgeLabel;html=1;align=center;verticalAlign=middle;resizable=0;points=[];" vertex="1" connectable="0" parent="IjMVUqnFBVOiyXnd5Re5-96">
          <mxGeometry x="-0.5011" y="2" relative="1" as="geometry">
            <mxPoint as="offset" />
          </mxGeometry>
        </mxCell>
        <mxCell id="IjMVUqnFBVOiyXnd5Re5-95" value="" style="html=1;dashed=0;whitespace=wrap;fillColor=#60a917;strokeColor=#2D7600;points=[[0.005,0.63,0],[0.1,0.2,0],[0.9,0.2,0],[0.5,0,0],[0.995,0.63,0],[0.72,0.99,0],[0.5,1,0],[0.28,0.99,0]];shape=mxgraph.kubernetes.icon;prIcon=api;rounded=0;sketch=0;fontColor=#ffffff;" vertex="1" parent="1">
          <mxGeometry x="222" y="802" width="82" height="72" as="geometry" />
        </mxCell>
        <mxCell id="IjMVUqnFBVOiyXnd5Re5-99" value="Jobs&lt;br&gt;Sistemi&lt;br&gt;REST" style="text;html=1;align=center;verticalAlign=middle;resizable=0;points=[];autosize=1;strokeColor=none;" vertex="1" parent="1">
          <mxGeometry x="238.5" y="887" width="49" height="46" as="geometry" />
        </mxCell>
        <mxCell id="IjMVUqnFBVOiyXnd5Re5-100" value="Zucchetti" style="text;html=1;align=center;verticalAlign=middle;resizable=0;points=[];autosize=1;strokeColor=none;" vertex="1" parent="1">
          <mxGeometry x="486" y="1030" width="59" height="18" as="geometry" />
        </mxCell>
      </root>
    </mxGraphModel>
  </diagram>
</mxfile>
